<svg xmlns="http://www.w3.org/2000/svg" xmlns:xlink="http://www.w3.org/1999/xlink" width="600" height="600" viewBox="0 0 200 200" overflow="hidden!important" xmlns:v="https://vecta.io/nano"><style><![CDATA[.B{fill:#f0c7b1}.C{fill:#c27b55}.D{stroke:#c27b55}.E{stroke-width:1.5}.F{stroke:#1f1105}]]></style><defs><radialGradient id="A" cx="100" cy="114" r="41" xlink:href="#R"><stop stop-opacity=".5" stop-color="#ffe4d6" offset="0"/><stop stop-opacity="0" stop-color="#f0c7b1" offset=".9"/></radialGradient><radialGradient id="B" cx="100" cy="54" r="37" xlink:href="#R"><stop stop-opacity=".5" stop-color="#ffe4d6" offset="0"/><stop stop-opacity="0" stop-color="#f0c7b1" offset=".9"/></radialGradient><radialGradient id="C" cx="125.861" cy="84.497" r="10.213" gradientTransform="matrix(-1 0 0 1 200 0)" xlink:href="#R"><stop stop-color="#fff" offset="0"/><stop stop-color="#fdfefe" offset=".544"/><stop stop-color="#f6f8f9" offset=".74"/><stop stop-color="#eaeff2" offset=".879"/><stop stop-color="#d9e3e8" offset=".992"/><stop stop-color="#d8e2e7" offset="1"/></radialGradient><radialGradient id="D" cx="125.861" cy="84.497" r="10.213" xlink:href="#R"><stop stop-color="#fff" offset="0"/><stop stop-color="#fdfefe" offset=".544"/><stop stop-color="#f6f8f9" offset=".74"/><stop stop-color="#eaeff2" offset=".879"/><stop stop-color="#d9e3e8" offset=".992"/><stop stop-color="#d8e2e7" offset="1"/></radialGradient><radialGradient id="E" cx="123.755" cy="83.738" fx="136.189" fy="83.773" r="17.684" gradientTransform="matrix(0.9998 0.0208 0.0166 -0.7998 -48.8769 148.1393)" xlink:href="#R"><stop stop-color="#e1ac8f" offset="0"/><stop stop-opacity=".3" stop-color="#e1ac8f" offset=".7"/><stop stop-opacity="0" stop-color="#f0c7b1" offset="1"/></radialGradient><radialGradient id="F" cx="122.636" cy="100.958" r="25.824" gradientTransform="matrix(-0.8746,-0.4848,-0.3636,0.656,221.3328,94.1879)" xlink:href="#R"><stop stop-opacity="0" offset=".94"/><stop stop-opacity=".2" offset="1"/></radialGradient><radialGradient id="G" cx="123.755" cy="83.738" fx="136.19" fy="83.773" r="17.685" gradientTransform="matrix(-0.9998 0.0208 -0.0166 -0.7998 248.8769 148.1393)" xlink:href="#R"><stop stop-color="#e1ac8f" offset="0"/><stop stop-opacity=".3" stop-color="#e1ac8f" offset=".7"/><stop stop-opacity="0" stop-color="#f0c7b1" offset="1"/></radialGradient><radialGradient id="H" cx="122.636" cy="100.958" r="25.824" gradientTransform="matrix(0.8746,-0.4848,0.3636,0.656,-21.3328,94.1879)" xlink:href="#R"><stop stop-opacity="0" offset=".94"/><stop stop-opacity=".2" offset="1"/></radialGradient><linearGradient id="I" x1="82" y1="78" x2="76" y2="84" xlink:href="#R"><stop stop-color="#fff" offset="0"/><stop stop-opacity="0" stop-color="#fff" offset="1"/></linearGradient><linearGradient id="J" x1="132" y1="78" x2="126" y2="84" xlink:href="#R"><stop stop-color="#fff" offset="0"/><stop stop-opacity="0" stop-color="#fff" offset="1"/></linearGradient><linearGradient id="K" x1="100" y1="172" x2="100" y2="123" xlink:href="#R"><stop stop-opacity=".8" stop-color="#e1ac8f" offset="0"/><stop stop-color="#c27b55" offset=".7"/></linearGradient><path id="L" d="M195.417 199.778c-2.196-4.746-8.195-11.779-14.86-13.722-8.239-2.403-26.837-5.308-33.733-6.923-5.528-1.296-16.662-11.294-20.564-14.65-.7-.6-1.273-1.839-1.287-2.76-.139-10.864 4.195-39.724 4.195-39.724H100 70.833s4.334 28.859 4.193 39.724c-.011.921-.587 2.16-1.285 2.76-3.902 3.356-15.036 13.354-20.564 14.65-6.897 1.615-25.495 4.619-33.733 7.022-6.667 1.942-12.664 8.876-14.86 13.622-3.708 8.008-4.584 22.5-4.584 35h100 100c0-12.499-.877-26.991-4.583-34.999z"/><path id="M" d="M100.002.867C66.384.92 39.082 28.536 39.134 62.56a62.47 62.47 0 0 0 2.002 15.634h.001c.012.054 10.289 31.434 12.948 44.055 2.38 11.298 12.959 20.462 17.72 25.456 5.47 5.742 12.307 14.237 28.197 14.162 15.889.075 22.727-8.42 28.197-14.162 4.761-4.994 15.34-14.158 17.72-25.456 2.659-12.621 12.937-44 12.947-44.055h.002c1.298-4.992 1.994-10.231 2.002-15.634.053-34.024-27.25-61.64-60.868-61.693z"/><path id="N" d="M60.942 83.152c-.216 2.76 1.682 6.038 12.492 6.964 9.553.818 13.62-.758 13.903-3.902s-3.407-6.987-12.88-7.482c-8.431-.44-13.269 1.273-13.515 4.42z"/><path id="O" d="M75.369 82.248c-1.319-.378-2.666.375-3.005 1.69-.342 1.308.452 2.678 1.771 3.056s2.667-.375 3.009-1.684c.343-1.315-.454-2.684-1.775-3.062z"/><path id="P" d="M139.059 83.152c.216 2.76-1.682 6.038-12.492 6.964-9.553.818-13.62-.758-13.903-3.902s3.407-6.987 12.88-7.482c8.431-.44 13.269 1.273 13.515 4.42z"/><path id="Q" d="M126.37 82.248c-1.319-.378-2.666.376-3.005 1.69-.343 1.308.451 2.678 1.77 3.056s2.668-.375 3.009-1.684c.343-1.315-.455-2.684-1.774-3.062z"/><linearGradient id="R" gradientUnits="userSpaceOnUse"/></defs><path d="M225 225H-25V-25h250V225z" fill="#ecf0f1"/><path d="M100.5 100.5h-1v-1h1v1z" fill="#080806"/><use xlink:href="#L" class="B"/><path d="M159.156 184.058c24.342 3.542 34.586 8.708 37.794 50.721H200c0-12.5-.877-26.992-4.583-35-2.196-4.746-8.195-11.779-14.86-13.722-8.239-2.403-26.837-5.308-33.733-6.923-5.528-1.296-18.242-12.069-21.643-16.35 3.36 4.704 12.791 15.605 21.054 18.46 3.953 1.366 7.245 1.988 12.921 2.814zm-105.39-2.814c8.263-2.854 17.693-13.756 21.054-18.46-3.4 4.28-16.114 15.054-21.643 16.35-6.896 1.615-25.494 4.619-33.733 7.022-6.665 1.942-12.664 8.876-14.86 13.622-3.706 8.008-4.583 22.5-4.583 35h3.05c3.188-41.744 13.475-47.183 37.794-50.721 5.675-.825 8.968-1.447 12.921-2.813z" fill="#ffe4d6"/><path d="M95.646 197.62l-7.083-2.379c-10.449-4.009-44.395-6.607-44.395-6.607s35.754 1.419 43.644 2.779c-.458-4.767-3.017-20.004-3.017-20.004l6.409 21.057c.674 2.268 4.442 5.154 4.442 5.154zm10.799-1.342c-.089.073-.191.168-.302.268a2.27 2.27 0 0 0 .302-.268zm-10.799 1.342s2.893 2.992 4.347 3.03c1.91.051 4.828-2.899 6.151-4.104-1.265.957-4.159 1.391-5.31 1.436-1.33.051-5.188-.362-5.188-.362zm21.018-7.519c-1.545.248-4.386.789-4.386.789l2.287-14.89c-.646 3.071-4.474 16.211-8.12 20.278 1.91-1.616 6.158-2.391 8.324-2.704 10.236-1.484 10.232-1.483 41.062-4.94 0 0-29.071-.155-39.167 1.467z" fill="#e1ac8f"/><use xlink:href="#L" fill="none" class="D E"/><path d="M75.517 163.052c6.979 4.54 16.307 8.814 24.485 8.814 7.828 0 17.345-4.309 24.458-8.869-.145-.428-.233-.862-.239-1.264-.126-9.877 3.345-34.021 4.076-38.983H71.703c.73 4.963 4.202 29.106 4.074 38.982-.005.414-.101.871-.26 1.32z" fill="url(#K)"/><path d="M197.798 201.546c-10.478-20.278-30.653-17.404-49.968-22.843-.468 3.585-13.251 20.479-16.287 30.061-1.705-1.423-3.74-3.325-5.209-5.066-7.188-8.443-17.841-35.76-21.416-14.428.777-9.576 5.003-11.686 10.871-3.659 6.308 8.638 6.542 13.098 15.542 22.491 1.59-6.601 5.032-11.259 9.036-17.104 3.875-5.663 6.705-8.217 7.119-13.258-1.445-2.408-1.099-3.486-3.434-5.046-14.655-9.912-4.192-19.97-17.476-22.365l-.345 3.549c2.841 1.462 3.691 7.152-.683 11.318-6.951 7.631-18.12 8.01-21.032 19.723l-.007-.001c-.927 3.477-1.669 8.799-2.021 11.919l-2.455 24.898-2.47-24.457c-2.003-18.359-4.621-20.155-13.183-25.828-5.673-3.76-14.943-9.433-11.917-15.847.345-.742.765-1.198 1.286-1.541l-.354-3.678c-10.967.467-9.281 15.982-17.586 21.69-2.177 1.496-3.287 2.879-4.068 5.129.531 6.281 14.504 20.476 16.945 30.899 9.085-9.592 9.155-13.783 15.5-22.459 5.465-7.465 9.928-6.699 10.867 3.403-.516-3.035-1.738-7.681-4.386-7.681-2.182 0-4.456 3.218-5.581 4.771-6.299 8.678-7.311 14.885-16.647 22.633-.646-1.941-1.404-3.891-2.308-5.706-3.7-7.474-13.719-22.555-14.858-24.017-4.428 1.246-11.177 2.626-15.233 3.3-26.504 4.411-36.778 12.969-40.685 53.031l209.21-.556c-.905-8.914-2.684-25.361-6.767-33.275z" fill="#1d282e"/><path d="M139.969 190.783c-3.461 5.054-6.201 9.3-7.908 14.621 1.967-10.979 14.436-21.374 13.086-27.939-.578-2.812-10.526-9.081-11.041-18.4 2.745 8.538 12.992 14.632 13.009 18.723.027 6.694-.173 2.807-7.146 12.995zm64.517 43.245c.347-8.682-2.572-25.584-6.19-32.598-10.478-20.278-31.563-17.691-50.877-23.13-.171.218.49 1.66.027 2.28 45.149 8.32 50.29 18.237 57.04 53.448zM55.812 172.075c5.547-4.597 7.21-9.05 8.483-13.011-2.85 16.28-7.111 10.123-10.22 18.276-1.778 4.663 12.003 17.403 13.866 28.063-2.442-4.175-5.06-9.313-8.521-14.367-2.694-3.937-4.41-7.537-7.079-10.567-1.272-6.713 1.355-6.64 3.471-8.394zm-3.472 8.395l-1.065-1.422c-19.314 5.438-38.594 2.104-49.071 22.383-3.619 7.014-5.426 21.363-6.423 30.064 1.929-10.573 4.804-23.893 10.963-31.929 10.444-14.167 29.716-16.901 45.596-19.096z" fill="#2d373d"/><path d="M119.848 171.392c-4.863 2.82-8.981 5.588-11.713 9.481 6.567.362 11.421 12.099 12.734 13.695-12.333-17.166-17-5.5-18.5 5.432.432-3.546.787-9.596 1.487-12.193.204-1.033.423-2.021.654-2.889l.007.001c2.912-11.713 14.081-12.092 21.032-19.723 4.374-4.166 3.523-9.856.683-11.318l.345-3.549a19.23 19.23 0 0 1 1.982.469c8.959 7.881-2.599 17.859-8.711 20.594zm-40.883 0c4.864 2.82 10.812 6.162 13.536 9.717-4.798-.873-10.131 6.294-12.798 12.627 11.5-14.667 15-6.333 18.667 6.265-.431-3.545-1.524-9.596-2.224-12.193-.204-1.033-.422-2.021-.654-2.889l-.006.001c-2.912-11.713-13.682-12.092-20.633-19.723-4.374-4.166-3.622-9.856-.781-11.318l-.344-3.549a19.23 19.23 0 0 0-1.982.469c-7.508 9.168 1.726 17.261 7.219 20.593z" fill="#101a1f"/><path d="M125.876 163.323c.031-5.701-.159-2.538.418-8.99 2.224 1.193 2.507 6.09-.418 8.99zm-51.737-.539c-2.323-3.04-2.61-6.145-.347-8.49.542 5.058.267 4.448.347 8.49z" fill="#070c0f"/><path d="M147.624 176.915c-.206-3.542-7.813-6.496-11.188-14.175-2.417-5.47-.123-11.734-10.065-12.741-.545 3.187-1.028 10.193-.883 13.579-5.038 5.423-12.831 6.826-17.785 12.657-5.288 6.224-7.58 19.7-7.667 47.667l1.232-.801 1.382-26.563c3.084-26.427 12.888-20.185 22.979-31.263 4.521-4.332 3.441-10.072.722-11.463l.325-3.35c8.552 1.571 6.109 6.605 8.784 12.753 3.556 8.174 10.297 9.959 10.732 13.923.69 6.281-3.058 8.947-6.817 14.434-5.913 8.559-7.28 12.925-8.101 16.308-8.975-9.426-8.98-13.558-15.398-22.338-6.844-9.366-11.339-4.974-13.226 10.996.194-2.625 3.77-17.175 8.043-14.651 4.939 2.878 9.791 15.108 15.561 21.886 1.539 1.823 3.521 3.652 5.345 5.182 3.407-11.897 16-24.465 16.408-30.205 19.695 5.556 53.439-.145 56.441 55.963-41.138.22-85.815-.682-208.97.554 1.785-18.437 4.804-36.508 15.723-44.653 4.685-3.507 10.117-5.341 15.712-6.508 7.797-1.616 16.522-2.655 24.253-4.747.788 1 14.205 21.198 17.224 29.597 10.863-8.503 15.207-24.459 21.188-27.214 4.164-1.913 7.559 11.938 7.753 14.553-1.63-16.891-6.95-22.418-17.024-4.923-4.964 8.624-6.28 10.962-11.56 16.51-2.12-8.994-16.895-25.954-16.253-30.662.634-4.646 6.314-3.363 10.098-13.244 2.122-5.54 1.652-11.648 10.708-13.455l.336 3.486c-2.479 1.631-3.109 7.111.852 10.942 3.567 4.085 10.004 6.416 14.255 9.676 5.011 3.867 6.993 7.827 8.588 21.67.035.302 1.37 26.942 1.37 26.942l1.333.667c-.667-27.833-3.335-44.568-8.721-49.258-4.652-4.15-12.775-6.796-16.717-11.429.12-3.476-.565-10.518-.993-13.171-9.009.918-9.264 6.638-11.196 11.632-5.165 13.351-10.134 9.527-10.957 15.059-.077.517.042.906.167 1.594-7.58 1.548-17.04 2.563-24.641 3.953-11.343 2.071-22.045 8.058-26.925 19.452-3.707 8.647-4.781 24.051-5.053 33.543-.011.068-.011.147-.011.215.152.012.314.012.466.012l209.534-.578c.382-53.36-28.785-51.026-57.363-58.013zm-21.648-13.891c.016-2.933.105-6.329.318-8.691 1.598 1.14 2.839 4.929-.318 8.691zm-51.888-.431c-2.652-3.471-1.6-6.836-.396-8 .251 2.346.35 5.631.396 8z"/><path d="M47.001 83.231c-1.376-2.453-5.638-8.48-9.98-7.003-2.749.935-3.293 3.993-3.735 6.693-.588 3.591.471 10.694 1.389 13.26.881 2.467 3.533 7.23 5.264 9.045 2.13 2.225 4.775 9.324 5.194 10.061.66 1.162 1.536 2.911 4.122 2.692 2.853-.244 4.584-1.85 5.856-2.121 3.142-.666-4.529-26.242-8.11-32.627z" class="B D E"/><path d="M44.197 98.104c-.132-.581.007-1.56.142-2.504.124-.861.24-1.675.169-2.251-.267-2.154-1.773-6.249-2.757-8.467-1.132-2.554-2.963-5.77-5.262-6.599-.95-.343-1.575.067-1.938.484-.266.305-.325.665-.238.707s.285-.254.572-.535a1.3 1.3 0 0 1 1.051-.385c-.19 1.073-1.167 6.883-.744 10.845.333 3.115 1.593 5.442 1.79 5.791.029.367.077.726.148 1.075.929 4.547 4.971 9.717 6.378 11.409.259.313.531.497.598.423s-.094-.387-.353-.7c-1.388-1.679-5.391-6.831-6.289-11.218-.952-4.656 2.318-11.556 3.048-13.017.371.685.687 1.344.93 1.893a46.61 46.61 0 0 1 .619 1.479c-.429.762-3.434 6.32-2.338 10.767.406 1.641 2.235 3.755 3.447 4.333.667.32.919.797 1.209 1.349.336.64.718 1.365 1.828 1.892.225.108.429.151.61.151a1.06 1.06 0 0 0 .725-.293 11.84 11.84 0 0 1 .009.97c-.012.431.042.783.137.791s.196-.332.207-.76c.016-.526.013-1.177-.072-1.488-.248-.917-1.008-1.953-1.813-3.048-.789-1.082-1.607-2.195-1.813-3.094zm-7.247-4.031c-2.177-7.139.656-13.3 1.144-14.28.85.822 1.6 1.919 2.21 2.995-.444.858-3.263 6.483-3.354 11.285zm9.391 10.442c-1.004-.475-1.339-1.115-1.666-1.733-.293-.559-.598-1.136-1.369-1.505-.168-.081-.352-.203-.542-.343-2.486-6.263.272-9.001.963-9.562.211.766.369 1.468.439 2.031.063.517-.052 1.339-.167 2.134-.142.985-.286 2.004-.137 2.664.226.982 1.069 2.131 1.884 3.242.723.986 1.466 2.003 1.721 2.832-.108.164-.45.561-1.126.24z" class="C"/><path d="M152.736 83.231c1.377-2.453 5.639-8.48 9.98-7.003 2.75.935 3.293 3.993 3.736 6.693.588 3.591-.471 10.694-1.389 13.26-.881 2.467-3.533 7.23-5.266 9.045-2.129 2.225-4.775 9.324-5.193 10.061-.658 1.162-1.535 2.911-4.121 2.692-2.854-.244-4.584-1.85-5.857-2.121-3.142-.666 4.53-26.242 8.11-32.627z" class="B D E"/><path d="M153.727 101.196c-.805 1.096-1.564 2.131-1.813 3.048-.086.311-.088.962-.072 1.488.012.428.113.768.207.76s.148-.36.137-.791l.01-.97a1.06 1.06 0 0 0 .725.293c.182 0 .385-.043.609-.151 1.109-.526 1.492-1.252 1.828-1.892.289-.552.543-1.028 1.209-1.349 1.213-.578 3.041-2.692 3.447-4.333 1.096-4.447-1.908-10.005-2.338-10.767a46.99 46.99 0 0 1 .619-1.479 27.35 27.35 0 0 1 .93-1.893c.73 1.46 4 8.361 3.049 13.017-.896 4.387-4.9 9.539-6.289 11.218-.258.313-.418.624-.352.7s.338-.109.598-.423c1.406-1.692 5.449-6.862 6.379-11.409a9.15 9.15 0 0 0 .146-1.075c.197-.349 1.459-2.676 1.791-5.791.422-3.961-.555-9.772-.744-10.845.473-.042.814.156 1.051.385.287.281.486.577.572.535s.027-.402-.238-.707c-.363-.417-.988-.827-1.938-.484-2.299.83-4.131 4.045-5.262 6.599-.984 2.218-2.49 6.313-2.758 8.467-.072.576.045 1.39.17 2.251.135.945.273 1.924.141 2.504-.205.901-1.023 2.014-1.814 3.094zm5.707-18.409c.611-1.075 1.361-2.173 2.211-2.995.488.98 3.32 7.141 1.145 14.28-.093-4.801-2.911-10.426-3.356-11.285zm-7.164 21.488c.254-.829.998-1.846 1.721-2.832.816-1.111 1.658-2.26 1.885-3.242.148-.66.004-1.679-.137-2.664-.115-.795-.23-1.617-.166-2.134.068-.563.227-1.266.438-2.031.691.561 3.449 3.299.965 9.562a3.57 3.57 0 0 1-.543.343c-.771.369-1.074.946-1.369 1.505-.326.618-.662 1.258-1.666 1.733-.677.321-1.019-.076-1.128-.24z" class="C"/><use xlink:href="#M" class="B"/><path d="M133.47 11.063c14.604 11.197 24.131 29.487 24.1 50.155a65.8 65.8 0 0 1-1.892 15.634h-.002c-.011.054-9.73 31.432-12.246 44.052-2.251 11.3-12.256 20.462-16.76 25.458-5.173 5.742-11.64 14.237-26.667 14.162-15.028.075-21.495-8.42-26.668-14.162-4.502-4.996-14.508-14.158-16.759-25.458-2.516-12.62-12.235-43.998-12.247-44.052h-.001c-1.228-4.992-1.885-10.231-1.893-15.634-.03-20.668 9.497-38.958 24.101-50.154-16.522 11.041-27.433 29.982-27.4 51.496a62.47 62.47 0 0 0 2.002 15.634h.001c.012.054 10.289 31.434 12.948 44.055 2.38 11.298 12.959 20.462 17.72 25.456 5.47 5.742 12.307 14.237 28.197 14.162 15.889.075 22.727-8.42 28.197-14.162 4.761-4.994 15.34-14.158 17.72-25.456 2.659-12.621 12.937-44 12.947-44.055h.002c1.298-4.992 1.994-10.231 2.002-15.634.031-21.514-10.88-40.456-27.402-51.497z" fill="#e8b9a0"/><use xlink:href="#M" fill="none" class="D E"/><path d="M100.34 141.925c-1.526 0-2.998-.193-3.9-.547a.5.5 0 1 1 .365-.931c1.664.653 5.855.676 7.704-.193a.5.5 0 0 1 .665.239.5.5 0 0 1-.239.665c-1.12.526-2.891.767-4.595.767zm14.685-8.481c.398-.171.584-.632.413-1.031s-.635-.583-1.031-.413c-11.666 4.992-28.742.338-28.912.292-.417-.116-.852.127-.968.546s.128.851.546.968c.463.128 7.692 2.1 16.034 2.1 4.62-.001 9.578-.605 13.918-2.462z" class="C"/><use xlink:href="#N" fill="url(#C)"/><path d="M80.288 85.838a5.98 5.98 0 0 1-7.358 4.196c-3.195-.876-5.083-4.178-4.212-7.371s4.167-5.076 7.362-4.198 5.078 4.177 4.208 7.373z" fill="#4d3623" stroke-width=".5" class="F"/><path d="M73.765 80.663l-.156-.279-1.575.687.37.894-.047.517-1.426-.839-1.318.804.004.009-.489.55.781.799-1.052.574.398.657 1.857.185-1.741 1.181 1.863-.103-.982 1.693 2.297-1.39-.618 2.364 1.329-2.184.256 2.343.384-2.072.353-.043.5 2.35.152-.705c.201-.052.718.704.915.651l-.584-2.556 1.282 2.556-.52-2.651 1.578 2.05c.057-.018.196-.85.252-.867l-.982-1.469 1.785.539-1.071-1.16-.86-.712 3.586.803-1.997-1.217 1.411-.577-3.055-.309 3.021-1.602-2.734.698-.736-.399-.181-.354.052-.846.061-1.389-1.248 2.198-.11-1.609-.157-.421-.736.265-.112.386z" fill="#5c4633"/><path d="M80.356 83.005c-5.242.239-7.907 1.36-11.707 2.631a5.99 5.99 0 0 1 4.53-7.164 6.01 6.01 0 0 1 7.177 4.533z" fill="#3e2816" opacity=".9"/><use xlink:href="#O" opacity=".8"/><use xlink:href="#O" fill="none" stroke-width=".75" class="F"/><path d="M70.131 87.81c.613.973 1.426 1.706 2.578 1.95 1.326.281 1.477-1.483.528-1.685-.72-.152-1.176-.505-1.552-1.102-.688-1.093-2.106-.039-1.554.837h0z" fill="#fff" opacity=".4"/><path d="M75.033 81.493c.929.187 1.469.768 1.938 1.64.862 1.604 3.299.178 2.437-1.425-.757-1.408-2.019-2.613-3.625-2.938-2.057-.415-2.345 2.401-.75 2.723h0z" fill="url(#I)" transform="translate(.5 .25)"/><path d="M55.772 86.694c1.203 13.754 10.653 24.163 21.106 23.249S94.83 97.136 93.627 83.382 82.974 59.218 72.521 60.133 54.569 72.94 55.772 86.694zm5.17-3.542c.246-3.146 5.084-4.86 13.516-4.419 9.473.495 13.163 4.338 12.88 7.482s-4.351 4.72-13.903 3.902c-10.811-.927-12.709-4.205-12.493-6.965z" class="B"/><path d="M57.798 85.194c.596 7.711 10.263 13.338 19.882 12.458 9.616-.885 17.535-6.722 16.834-14.425s-9.053-13.224-18.673-12.342-18.861 3.762-18.043 14.309zm3.144-2.042c.246-3.146 5.084-4.86 13.516-4.419 9.473.495 13.163 4.338 12.88 7.482s-4.351 4.72-13.903 3.902c-10.811-.927-12.709-4.205-12.493-6.965z" fill="url(#E)"/><use xlink:href="#N" fill="url(#F)"/><path d="M85.569 79.486c-1.025-.673-3.285-1.602-3.285-1.602s2.571.588 3.59 1.279 2.082 2.366 2.082 2.366-1.362-1.37-2.387-2.043zM67.02 77.131s-2.657-.034-4.546 1.136c-1.734 1.074-2.448 2.685-2.448 2.685s1.649-1.725 2.813-2.501c1.088-.726 4.181-1.32 4.181-1.32z" class="C"/><path d="M74.758 78.929c-6.156-.216-15.613.376-13.409 6.209-3.203-1.934-.741-8.81 13.992-7.583 7.137.594 15.623 4.275 11.685 9.764 1.247-5.737-6.226-8.177-12.268-8.39zm10.865 10.083l-3.021.956c-5.294.085-8.251-.28-13.196-.504-2.279-.104-4.328-1.226-6.996-2.467 1.537 1.698 4.094 3.061 6.943 3.226 4.789.278 8.032.342 13.408.382l2.862-1.593z"/><use xlink:href="#P" fill="url(#D)"/><path d="M131.288 85.837a5.98 5.98 0 0 1-7.358 4.196c-3.195-.876-5.082-4.178-4.212-7.371s4.167-5.076 7.361-4.198 5.079 4.179 4.209 7.373z" fill="#4d3623" stroke-width=".5" class="F"/><path d="M124.766 80.663l-.155-.278-1.576.686.37.894-.047.517-1.426-.839-1.317.804.004.009-.49.551.782.799-1.052.573.397.657 1.857.185-1.741 1.181 1.863-.103-.982 1.692 2.296-1.39-.616 2.364 1.328-2.184.257 2.343.384-2.073.353-.043.501 2.35.151-.704c.201-.052.719.703.915.651l-.585-2.556 1.283 2.556-.521-2.651 1.577 2.05c.057-.018.197-.85.253-.867l-.982-1.469 1.786.538-1.071-1.16-.859-.712 3.586.802-1.997-1.216 1.411-.577-3.054-.308 3.021-1.603-2.734.698-.736-.399-.18-.354.052-.847.061-1.388-1.247 2.198-.11-1.609-.156-.422-.735.265-.119.389z" fill="#5c4633"/><path d="M131.355 83.005c-5.24.239-7.906 1.36-11.706 2.631a5.99 5.99 0 0 1 4.53-7.164 6.01 6.01 0 0 1 7.176 4.533z" fill="#3e2816" opacity=".9"/><use xlink:href="#Q" opacity=".8"/><use xlink:href="#Q" fill="none" stroke-width=".75" class="F"/><path d="M121.132 87.81c.612.973 1.426 1.706 2.577 1.95 1.326.281 1.478-1.482.528-1.685-.72-.152-1.177-.504-1.552-1.102-.687-1.093-2.106-.039-1.553.837h0z" fill="#fff" opacity=".4"/><path d="M127.034 81.493c.929.187 1.469.767 1.938 1.639.862 1.604 3.3.178 2.437-1.425-.757-1.408-2.018-2.613-3.625-2.938-2.057-.414-2.346 2.402-.75 2.724h0z" fill="url(#J)" transform="translate(-.5 .25)"/><path d="M127.479 60.133c-10.453-.915-19.903 9.495-21.106 23.249s6.296 25.646 16.749 26.561 19.903-9.495 21.106-23.249-6.294-25.646-16.749-26.561zm-.913 29.983c-9.553.818-13.62-.758-13.903-3.902s3.407-6.987 12.88-7.482c8.432-.44 13.27 1.273 13.516 4.419.215 2.761-1.682 6.039-12.493 6.965z" class="B"/><path d="M124.159 70.885c-9.62-.882-17.976 4.643-18.673 12.342s7.218 13.54 16.834 14.425c9.619.88 19.286-4.747 19.882-12.458.819-10.547-8.423-13.423-18.043-14.309zm2.407 19.231c-9.553.818-13.62-.758-13.903-3.902s3.407-6.987 12.88-7.482c8.432-.44 13.27 1.273 13.516 4.419.215 2.761-1.682 6.039-12.493 6.965z" fill="url(#G)"/><use xlink:href="#P" fill="url(#H)"/><path d="M112.045 81.529s1.063-1.675 2.082-2.366 3.59-1.279 3.59-1.279-2.26.929-3.285 1.602-2.387 2.043-2.387 2.043zm25.116-3.078c1.164.776 2.813 2.501 2.813 2.501s-.714-1.61-2.448-2.685c-1.889-1.169-4.546-1.136-4.546-1.136s3.093.594 4.181 1.32z" class="C"/><path d="M112.975 87.32c-3.938-5.489 4.548-9.17 11.685-9.764 14.733-1.227 17.195 5.648 13.992 7.583 2.204-5.833-7.253-6.425-13.409-6.209-6.043.212-13.515 2.652-12.268 8.39zm4.264 3.284c5.376-.04 8.619-.104 13.408-.382 2.85-.165 5.406-1.528 6.943-3.226-2.668 1.241-4.717 2.363-6.996 2.467-4.945.225-7.902.589-13.196.504l-3.021-.956 2.862 1.593z"/><path d="M141 113.974c.035 22.622-18.292 40.994-40.938 41.025-22.642.037-41.028-18.273-41.063-40.9-.035-22.62 18.292-41.064 40.937-41.1s41.031 18.35 41.064 40.975z" fill="url(#A)"/><path d="M137.5 53.999c0 20.711-16.789 37.5-37.499 37.5S62.5 74.71 62.5 53.999s16.79-37.5 37.501-37.5 37.499 16.789 37.499 37.5z" fill="url(#B)"/><path d="M52.488 73.87c7.475-9.383 20.338-7.822 30.878-6.314 2.681.384 5.441.672 8.07 1.336 1.884.475 3.365 2.622 1.851 4.356-.708.825-2.253.672-3.207.652-12.621-.255-26.887-7.513-37.592-.03zm95.089-.38c-2.164-1.448-4.454-2.47-7.043-2.889-9.497-1.54-27.586 4.79-32.341 3.45-2.912-.822-2.323-3.739-1.035-4.458.775-.433.99-.422 7.909-1.612 11.757-2.02 24.921-3.626 32.51 5.509z" fill="#2a232b"/><path d="M96.831 88.524s-1.399 11.117-2.026 13.281c-1.379 4.752-6.168 11.417-5.239 14.429 1.859 6.022 7.537 4.493 10.524 4.471 2.763-.022 8.072 1.552 9.162-2.37.352-1.266-.441-4.466-.441-4.466s-2.644 3.112-8.875 2.767c-1.778-.099-4.671-2.096-4.704-4.912-.043-3.817 1.802-7.035 2.205-10.824.304-2.878-.606-12.376-.606-12.376z" fill="#e1ac8f"/><path d="M105.194 118.969c1.075 0 1.366.326 1.366.729s-.335 1.026-1.366.73c-1.134-.323-3.113-.175-3.113-.175s2.036-1.284 3.113-1.284zm-10.272 0c-1.077.001-1.366.328-1.366.733s.323.983 1.366.729c1.15-.282 3.112-.175 3.112-.175s-2.035-1.283-3.112-1.287zm13.888-5.1s1.489 1.933 1.18 3.975c-.301 1.983-3.31 2.861-3.31 2.861s2.089-1.516 2.342-3.356c.118-.863-.212-3.48-.212-3.48zm-18.383-1.986s-1.086 2.704-.772 4.352c.571 2.976 3.704 4.164 3.704 4.164s-1.955-2.039-2.65-3.842c-.761-1.97-.282-4.674-.282-4.674z" class="C"/><path d="M105.141 115.311c1.043-.889 1.148-1.396.932-1.729s-.841-.545-1.714.528c-.963 1.18-3.056 2.054-3.056 2.054s2.795.034 3.838-.853z" fill="#ffe4d6"/><g fill="#2a232b"><path d="M100 18.13h0 0 0z"/><path d="M100 18.13h0 0 0z"/></g><path d="M100 18.13h0 0 0z" fill="#080806"/><path d="M100 18.13h0 0 0z" fill="#26120b"/></svg>